<svg version="1.1" xmlns="http://www.w3.org/2000/svg" xmlns:xlink="http://www.w3.org/1999/xlink" width="756" height="612"><defs/><g><g transform="translate(-110,-110) scale(1,1)"><rect fill="#C0C0C0" stroke="none" x="127" y="263" width="294.4" height="15" opacity="0.2"/></g><g transform="translate(-110,-110) scale(1,1)"><rect fill="#C0C0C0" stroke="none" x="127" y="277" width="736" height="306" opacity="0.2"/></g><g transform="translate(-110,-110) scale(1,1)"><rect fill="#ffffff" stroke="none" x="120" y="271" width="736" height="305"/></g><g transform="translate(-110,-110) scale(1,1)"><path fill="none" stroke="#000000" d="M 120 271 L 856 271 L 856 576 L 120 576 L 120 271 Z Z" stroke-miterlimit="10"/></g><g transform="translate(-110,-110) scale(1,1)"><rect fill="#ffffff" stroke="none" x="120" y="256" width="294.4" height="15"/></g><g transform="translate(-110,-110) scale(1,1)"><path fill="none" stroke="#000000" d="M 120 256 L 414.4 256 L 414.4 271 L 120 271 L 120 256 Z Z" stroke-miterlimit="10"/></g><g transform="translate(-110,-110) scale(1,1)"><rect fill="#ffffff" stroke="none" x="120" y="270" width="736" height="306"/></g><g transform="translate(-110,-110) scale(1,1)"><path fill="none" stroke="#000000" d="M 120 270 L 856 270 L 856 576 L 120 576 L 120 270 Z Z" stroke-miterlimit="10"/></g><g transform="translate(-110,-110) scale(1,1)"><g><path fill="none" stroke="none"/><text fill="#000000" stroke="none" font-family="Arial" font-size="13px" font-style="normal" font-weight="bold" text-decoration="none" x="468.141357421875" y="288.7099609375">Plugin</text></g></g><g transform="translate(-110,-110) scale(1,1)"><path fill="none" stroke="#000000" d="M 564 471 L 489 388" stroke-miterlimit="10"/></g><g transform="translate(-110,-110) scale(1,1)"><path fill="#FFFFFF" stroke="none" d="M 508.8736108369779 397.43607928645974 L 489 388 L 496.38044933821993 408.72508064075913"/></g><g transform="translate(-110,-110) scale(1,1)"><path fill="none" stroke="#000000" d="M 508.8736108369779 397.43607928645974 L 489 388 L 496.38044933821993 408.72508064075913 L 508.8736108369779 397.43607928645974" stroke-miterlimit="10"/></g><g transform="translate(-110,-110) scale(1,1)"><path fill="none" stroke="#000000" d="M 618 471 L 683 388" stroke-miterlimit="10"/></g><g transform="translate(-110,-110) scale(1,1)"><path fill="#FFFFFF" stroke="none" d="M 677.0964681900731 409.1931194534731 L 683 388 L 663.8397741442028 398.8113711042976"/></g><g transform="translate(-110,-110) scale(1,1)"><path fill="none" stroke="#000000" d="M 677.0964681900731 409.1931194534731 L 683 388 L 663.8397741442028 398.8113711042976 L 677.0964681900731 409.1931194534731" stroke-miterlimit="10"/></g><g transform="translate(-110,-110) scale(1,1)"><rect fill="#C0C0C0" stroke="none" x="391" y="319" width="140.8662109375" height="75" opacity="0.2"/></g><g transform="translate(-110,-110) scale(1,1)"><rect fill="#ffffff" stroke="none" x="384" y="312" width="140.8662109375" height="75"/></g><g transform="translate(-110,-110) scale(1,1)"><path fill="none" stroke="#000000" d="M 384 312 L 524.8662109375 312 L 524.8662109375 387 L 384 387 L 384 312 Z Z" stroke-miterlimit="10"/></g><g transform="translate(-110,-110) scale(1,1)"><path fill="none" stroke="#000000" d="M 384 350 L 524.8662109375 350" stroke-miterlimit="10"/></g><g transform="translate(-110,-110) scale(1,1)"><g><path fill="none" stroke="none"/><text fill="#000000" stroke="none" font-family="Arial" font-size="13px" font-style="normal" font-weight="normal" text-decoration="none" x="422.272705078125" y="327.7099609375">«interface»</text></g></g><g transform="translate(-110,-110) scale(1,1)"><g><path fill="none" stroke="none"/><text fill="#000000" stroke="none" font-family="Arial" font-size="13px" font-style="normal" font-weight="bold" text-decoration="none" x="434.574462890625" y="342.7099609375">Plugin</text></g></g><g transform="translate(-110,-110) scale(1,1)"><g><path fill="none" stroke="none"/><text fill="#000000" stroke="none" font-family="Arial" font-size="13px" font-style="normal" font-weight="normal" text-decoration="none" x="389" y="365.7099609375">+Open(name: string[*])</text></g></g><g transform="translate(-110,-110) scale(1,1)"><g><path fill="none" stroke="none"/><text fill="#000000" stroke="none" font-family="Arial" font-size="13px" font-style="normal" font-weight="normal" text-decoration="none" x="389" y="380.7099609375">+Close()</text></g></g><g transform="translate(-110,-110) scale(1,1)"><rect fill="#C0C0C0" stroke="none" x="599" y="319" width="243.18408203125" height="75" opacity="0.2"/></g><g transform="translate(-110,-110) scale(1,1)"><rect fill="#ffffff" stroke="none" x="592" y="312" width="243.18408203125" height="75"/></g><g transform="translate(-110,-110) scale(1,1)"><path fill="none" stroke="#000000" d="M 592 312 L 835.18408203125 312 L 835.18408203125 387 L 592 387 L 592 312 Z Z" stroke-miterlimit="10"/></g><g transform="translate(-110,-110) scale(1,1)"><path fill="none" stroke="#000000" d="M 592 350 L 835.18408203125 350" stroke-miterlimit="10"/></g><g transform="translate(-110,-110) scale(1,1)"><g><path fill="none" stroke="none"/><text fill="#000000" stroke="none" font-family="Arial" font-size="13px" font-style="normal" font-weight="normal" text-decoration="none" x="681.431640625" y="327.7099609375">«interface»</text></g></g><g transform="translate(-110,-110) scale(1,1)"><g><path fill="none" stroke="none"/><text fill="#000000" stroke="none" font-family="Arial" font-size="13px" font-style="normal" font-weight="bold" text-decoration="none" x="690.47705078125" y="342.471923828125">Mapper</text></g></g><g transform="translate(-110,-110) scale(1,1)"><g><path fill="none" stroke="none"/><text fill="#000000" stroke="none" font-family="Arial" font-size="13px" font-style="normal" font-weight="normal" text-decoration="none" x="597" y="365.7099609375">+Read(tx: TxInfo, ID: string)</text></g></g><g transform="translate(-110,-110) scale(1,1)"><g><path fill="none" stroke="none"/><text fill="#000000" stroke="none" font-family="Arial" font-size="13px" font-style="normal" font-weight="normal" text-decoration="none" x="597" y="380.7099609375">+Write(tx: TxInfo, ID: string, val: string)</text></g></g><g transform="translate(-110,-110) scale(1,1)"><path fill="#C0C0C0" stroke="none" d="M 581.70361328125 498 C 581.70361328125 487.5065888 590.21020208125 479 600.70361328125 479 C 611.19702448125 479 619.70361328125 487.5065888 619.70361328125 498 C 619.70361328125 508.4934112 611.19702448125 517 600.70361328125 517 C 590.21020208125 517 581.70361328125 508.4934112 581.70361328125 498 Z" opacity="0.2"/></g><g transform="translate(-110,-110) scale(1,1)"><path fill="none" stroke="#000000" d="M 574.3689671618725 494.72620656762547 A 19 19 0 0 1 611.6310328381275 487.27379343237453" stroke-miterlimit="10"/></g><g transform="translate(-110,-110) scale(1,1)"><path fill="#ffffff" stroke="none" d="M 577.70361328125 491 C 577.70361328125 482.1634432 584.86705648125 475 593.70361328125 475 C 602.54017008125 475 609.70361328125 482.1634432 609.70361328125 491 C 609.70361328125 499.8365568 602.54017008125 507 593.70361328125 507 C 584.86705648125 507 577.70361328125 499.8365568 577.70361328125 491 Z"/></g><g transform="translate(-110,-110) scale(1,1)"><path fill="none" stroke="#000000" d="M 577.70361328125 491 C 577.70361328125 482.1634432 584.86705648125 475 593.70361328125 475 C 602.54017008125 475 609.70361328125 482.1634432 609.70361328125 491 C 609.70361328125 499.8365568 602.54017008125 507 593.70361328125 507 C 584.86705648125 507 577.70361328125 499.8365568 577.70361328125 491 Z" stroke-miterlimit="10"/></g><g transform="translate(-110,-110) scale(1,1)"><g><path fill="none" stroke="none"/><text fill="#000000" stroke="none" font-family="Arial" font-size="13px" font-style="normal" font-weight="bold" text-decoration="none" x="572.03271484375" y="527.7099609375">Ledger</text></g></g><g transform="translate(-110,-110) scale(1,1)"><rect fill="#C0C0C0" stroke="none" x="191" y="439" width="125.34619140625" height="105" opacity="0.2"/></g><g transform="translate(-110,-110) scale(1,1)"><rect fill="#ffffff" stroke="none" x="184" y="432" width="125.34619140625" height="105"/></g><g transform="translate(-110,-110) scale(1,1)"><path fill="none" stroke="#000000" d="M 184 432 L 309.34619140625 432 L 309.34619140625 537 L 184 537 L 184 432 Z Z" stroke-miterlimit="10"/></g><g transform="translate(-110,-110) scale(1,1)"><path fill="none" stroke="#000000" d="M 184 485 L 309.34619140625 485" stroke-miterlimit="10"/></g><g transform="translate(-110,-110) scale(1,1)"><g><path fill="none" stroke="none"/><text fill="#000000" stroke="none" font-family="Arial" font-size="13px" font-style="normal" font-weight="normal" text-decoration="none" x="203.30908203125" y="447.7099609375">«enumeration»</text></g></g><g transform="translate(-110,-110) scale(1,1)"><g><path fill="none" stroke="none"/><text fill="#000000" stroke="none" font-family="Arial" font-size="13px" font-style="normal" font-weight="bold" text-decoration="none" x="224.399169921875" y="462.471923828125">TxType</text></g></g><g transform="translate(-110,-110) scale(1,1)"><g><path fill="none" stroke="none"/><text fill="#000000" stroke="none" font-family="Arial" font-size="13px" font-style="normal" font-weight="normal" text-decoration="none" x="209.469482421875" y="477.7099609375">(from Plugin)</text></g></g><g transform="translate(-110,-110) scale(1,1)"><g><path fill="none" stroke="none"/><text fill="#000000" stroke="none" font-family="Arial" font-size="13px" font-style="normal" font-weight="normal" text-decoration="none" x="189" y="500.471923828125">TxTypeDID</text></g></g><g transform="translate(-110,-110) scale(1,1)"><g><path fill="none" stroke="none"/><text fill="#000000" stroke="none" font-family="Arial" font-size="13px" font-style="normal" font-weight="normal" text-decoration="none" x="189" y="515.7099609375">TxTypeSchema</text></g></g><g transform="translate(-110,-110) scale(1,1)"><g><path fill="none" stroke="none"/><text fill="#000000" stroke="none" font-family="Arial" font-size="13px" font-style="normal" font-weight="normal" text-decoration="none" x="189" y="530.7099609375">TxTypeCredDef</text></g></g><g transform="translate(-110,-110) scale(1,1)"><rect fill="#C0C0C0" stroke="none" x="209" y="315" width="83.4072265625" height="59" opacity="0.2"/></g><g transform="translate(-110,-110) scale(1,1)"><rect fill="#ffffff" stroke="none" x="202" y="308" width="83.4072265625" height="59"/></g><g transform="translate(-110,-110) scale(1,1)"><path fill="none" stroke="#000000" d="M 202 308 L 285.4072265625 308 L 285.4072265625 367 L 202 367 L 202 308 Z Z" stroke-miterlimit="10"/></g><g transform="translate(-110,-110) scale(1,1)"><path fill="none" stroke="#000000" d="M 202 348 L 285.4072265625 348" stroke-miterlimit="10"/></g><g transform="translate(-110,-110) scale(1,1)"><path fill="none" stroke="#000000" d="M 202 358 L 285.4072265625 358" stroke-miterlimit="10"/></g><g transform="translate(-110,-110) scale(1,1)"><g><path fill="none" stroke="none"/><text fill="#000000" stroke="none" font-family="Arial" font-size="13px" font-style="normal" font-weight="bold" text-decoration="none" x="224.206787109375" y="325.70361328125">TxInfo</text></g></g><g transform="translate(-110,-110) scale(1,1)"><g><path fill="none" stroke="none"/><text fill="#000000" stroke="none" font-family="Arial" font-size="13px" font-style="normal" font-weight="normal" text-decoration="none" x="206.5" y="340.7099609375">(from Plugin)</text></g></g><g transform="translate(-110,-110) scale(1,1)"><path fill="none" stroke="#000000" d="M 245 431 L 244 368" stroke-miterlimit="10"/></g><g transform="translate(-110,-110) scale(1,1)"><path fill="#000000" stroke="none" d="M 248.37027953829912 378.0945855168562 L 244 368 L 239.95230442497555 378.2282041694487 L 244.34916236578792 389.9972290446392"/></g><g transform="translate(-110,-110) scale(1,1)"><path fill="none" stroke="#000000" d="M 248.37027953829912 378.0945855168562 L 244 368 L 239.95230442497555 378.2282041694487 L 244.34916236578792 389.9972290446392 L 248.37027953829912 378.0945855168562" stroke-miterlimit="10"/></g><g transform="translate(-110,-110) scale(1,1)"><g><path fill="none" stroke="none"/><text fill="#000000" stroke="none" font-family="Arial" font-size="13px" font-style="normal" font-weight="normal" text-decoration="none" x="190.5" y="402.471923828125">+Type</text></g></g><g transform="translate(-110,-110) scale(1,1)"><rect fill="#C0C0C0" stroke="none" x="127" y="607" width="294.4" height="15" opacity="0.2"/></g><g transform="translate(-110,-110) scale(1,1)"><rect fill="#C0C0C0" stroke="none" x="127" y="621" width="736" height="98" opacity="0.2"/></g><g transform="translate(-110,-110) scale(1,1)"><rect fill="#ffffff" stroke="none" x="120" y="615" width="736" height="97"/></g><g transform="translate(-110,-110) scale(1,1)"><path fill="none" stroke="#000000" d="M 120 615 L 856 615 L 856 712 L 120 712 L 120 615 Z Z" stroke-miterlimit="10"/></g><g transform="translate(-110,-110) scale(1,1)"><rect fill="#ffffff" stroke="none" x="120" y="600" width="294.4" height="15"/></g><g transform="translate(-110,-110) scale(1,1)"><path fill="none" stroke="#000000" d="M 120 600 L 414.4 600 L 414.4 615 L 120 615 L 120 600 Z Z" stroke-miterlimit="10"/></g><g transform="translate(-110,-110) scale(1,1)"><rect fill="#ffffff" stroke="none" x="120" y="614" width="736" height="98"/></g><g transform="translate(-110,-110) scale(1,1)"><path fill="none" stroke="#000000" d="M 120 614 L 856 614 L 856 712 L 120 712 L 120 614 Z Z" stroke-miterlimit="10"/></g><g transform="translate(-110,-110) scale(1,1)"><g><path fill="none" stroke="none"/><text fill="#000000" stroke="none" font-family="Arial" font-size="13px" font-style="normal" font-weight="bold" text-decoration="none" x="463.80908203125" y="632.7099609375">Addons</text></g></g><g transform="translate(-110,-110) scale(1,1)"><rect fill="#C0C0C0" stroke="none" x="175" y="663" width="144.79541015625" height="24" opacity="0.2"/></g><g transform="translate(-110,-110) scale(1,1)"><rect fill="#ffffff" stroke="none" x="168" y="656" width="144.79541015625" height="24"/></g><g transform="translate(-110,-110) scale(1,1)"><path fill="none" stroke="#000000" d="M 168 656 L 312.79541015625 656 L 312.79541015625 680 L 168 680 L 168 656 Z Z" stroke-miterlimit="10"/></g><g transform="translate(-110,-110) scale(1,1)"><g><path fill="none" stroke="none"/><text fill="#000000" stroke="none" font-family="Arial" font-size="13px" font-style="normal" font-weight="bold" text-decoration="none" x="172.5" y="673.53857421875">FINDY_FILE_LEDGER</text></g></g><g transform="translate(-110,-110) scale(1,1)"><rect fill="#C0C0C0" stroke="none" x="343" y="663" width="146.9599609375" height="24" opacity="0.2"/></g><g transform="translate(-110,-110) scale(1,1)"><rect fill="#ffffff" stroke="none" x="336" y="656" width="146.9599609375" height="24"/></g><g transform="translate(-110,-110) scale(1,1)"><path fill="none" stroke="#000000" d="M 336 656 L 482.9599609375 656 L 482.9599609375 680 L 336 680 L 336 656 Z Z" stroke-miterlimit="10"/></g><g transform="translate(-110,-110) scale(1,1)"><g><path fill="none" stroke="none"/><text fill="#000000" stroke="none" font-family="Arial" font-size="13px" font-style="normal" font-weight="bold" text-decoration="none" x="340.5" y="673.53857421875">FINDY_MEM_LEDGER</text></g></g><g transform="translate(-110,-110) scale(1,1)"><rect fill="#C0C0C0" stroke="none" x="527" y="663" width="100.0126953125" height="24" opacity="0.2"/></g><g transform="translate(-110,-110) scale(1,1)"><rect fill="#c6c6c6" stroke="none" x="520" y="656" width="100.0126953125" height="24"/></g><g transform="translate(-110,-110) scale(1,1)"><path fill="none" stroke="#000000" d="M 520 656 L 620.0126953125 656 L 620.0126953125 680 L 520 680 L 520 656 Z Z" stroke-miterlimit="10"/></g><g transform="translate(-110,-110) scale(1,1)"><g><path fill="none" stroke="none"/><text fill="#000000" stroke="none" font-family="Arial" font-size="13px" font-style="normal" font-weight="bold" text-decoration="none" x="524.5" y="673.53857421875">FINDY_LEGER</text></g></g><g transform="translate(-110,-110) scale(1,1)"><rect fill="#C0C0C0" stroke="none" x="663" y="663" width="170.0654296875" height="24" opacity="0.2"/></g><g transform="translate(-110,-110) scale(1,1)"><rect fill="#ffffff" stroke="none" x="656" y="656" width="170.0654296875" height="24"/></g><g transform="translate(-110,-110) scale(1,1)"><path fill="none" stroke="#000000" d="M 656 656 L 826.0654296875 656 L 826.0654296875 680 L 656 680 L 656 656 Z Z" stroke-miterlimit="10"/></g><g transform="translate(-110,-110) scale(1,1)"><g><path fill="none" stroke="none"/><text fill="#000000" stroke="none" font-family="Arial" font-size="13px" font-style="normal" font-weight="bold" text-decoration="none" x="660.5" y="673.53857421875">FINDY_IMMUDB_LEDGER</text></g></g><g transform="translate(-110,-110) scale(1,1)"><path fill="none" stroke="#000000" d="M 729 655 L 605.6666666666666 510" stroke-miterlimit="10"/></g><g transform="translate(-110,-110) scale(1,1)"><path fill="none" stroke="#000000" d="M 572 655 L 590.8888888888889 510" stroke-miterlimit="10"/></g><g transform="translate(-110,-110) scale(1,1)"><path fill="none" stroke="#000000" d="M 423 655 L 577.3777777777777 510" stroke-miterlimit="10"/></g><g transform="translate(-110,-110) scale(1,1)"><path fill="none" stroke="#000000" d="M 268 655 L 574.70361328125 504.9401041666667" stroke-miterlimit="10"/></g><g transform="translate(-110,-110) scale(1,1)"><rect fill="#C0C0C0" stroke="none" x="423" y="127" width="273.55126953125" height="105" opacity="0.2"/></g><g transform="translate(-110,-110) scale(1,1)"><rect fill="#ffffff" stroke="none" x="416" y="120" width="273.55126953125" height="105"/></g><g transform="translate(-110,-110) scale(1,1)"><path fill="none" stroke="#000000" d="M 416 120 L 689.55126953125 120 L 689.55126953125 225 L 416 225 L 416 120 Z Z" stroke-miterlimit="10"/></g><g transform="translate(-110,-110) scale(1,1)"><path fill="none" stroke="#000000" d="M 416 173 L 689.55126953125 173" stroke-miterlimit="10"/></g><g transform="translate(-110,-110) scale(1,1)"><g><path fill="none" stroke="none"/><text fill="#000000" stroke="none" font-family="Arial" font-size="13px" font-style="normal" font-weight="normal" text-decoration="none" x="520.615234375" y="135.7099609375">«interface»</text></g></g><g transform="translate(-110,-110) scale(1,1)"><g><path fill="none" stroke="none"/><text fill="#000000" stroke="none" font-family="Arial" font-size="13px" font-style="normal" font-weight="bold" text-decoration="none" x="538.693359375" y="150.7099609375">Pool</text></g></g><g transform="translate(-110,-110) scale(1,1)"><g><path fill="none" stroke="none"/><text fill="#000000" stroke="none" font-family="Arial" font-size="13px" font-style="normal" font-weight="normal" text-decoration="none" x="520.631103515625" y="165.7099609375">(from Pool)</text></g></g><g transform="translate(-110,-110) scale(1,1)"><g><path fill="none" stroke="none"/><text fill="#000000" stroke="none" font-family="Arial" font-size="13px" font-style="normal" font-weight="normal" text-decoration="none" x="421" y="188.7099609375">+OpenLedger(name[1..*])</text></g></g><g transform="translate(-110,-110) scale(1,1)"><g><path fill="none" stroke="none"/><text fill="#000000" stroke="none" font-family="Arial" font-size="13px" font-style="normal" font-weight="normal" text-decoration="none" x="421" y="203.7099609375">+Read(tx: TxInfo, ID: string)</text></g></g><g transform="translate(-110,-110) scale(1,1)"><g><path fill="none" stroke="none"/><text fill="#000000" stroke="none" font-family="Arial" font-size="13px" font-style="normal" font-weight="normal" text-decoration="none" x="421" y="218.7099609375">+Write(tx: TxInfo, ID: string, val: string)</text></g></g><g transform="translate(-110,-110) scale(1,1)"><path fill="none" stroke="#000000" d="M 559 226 L 589.2 472" stroke-miterlimit="10"/></g><g transform="translate(-110,-110) scale(1,1)"><path fill="none" stroke="#000000" d="M 451 226 L 286 314" stroke-miterlimit="10" stroke-dasharray="3"/></g><g transform="translate(-110,-110) scale(1,1)"><path fill="none" stroke="#000000" d="M 292.98611651860205 305.50328439992745 L 286 314 L 296.9480155830877 312.93184514583805" stroke-miterlimit="10"/></g></g></svg>