<svg version="1.1" xmlns="http://www.w3.org/2000/svg" xmlns:xlink="http://www.w3.org/1999/xlink" width="756" height="476"><defs/><g><g transform="translate(-126,-78) scale(1,1)"><rect fill="#C0C0C0" stroke="none" x="143" y="95" width="294.4" height="15" opacity="0.2"/></g><g transform="translate(-126,-78) scale(1,1)"><rect fill="#C0C0C0" stroke="none" x="143" y="109" width="736" height="306" opacity="0.2"/></g><g transform="translate(-126,-78) scale(1,1)"><rect fill="#ffffff" stroke="none" x="136" y="103" width="736" height="305"/></g><g transform="translate(-126,-78) scale(1,1)"><path fill="none" stroke="#000000" d="M 136 103 L 872 103 L 872 408 L 136 408 L 136 103 Z Z" stroke-miterlimit="10"/></g><g transform="translate(-126,-78) scale(1,1)"><rect fill="#ffffff" stroke="none" x="136" y="88" width="294.4" height="15"/></g><g transform="translate(-126,-78) scale(1,1)"><path fill="none" stroke="#000000" d="M 136 88 L 430.4 88 L 430.4 103 L 136 103 L 136 88 Z Z" stroke-miterlimit="10"/></g><g transform="translate(-126,-78) scale(1,1)"><rect fill="#ffffff" stroke="none" x="136" y="102" width="736" height="306"/></g><g transform="translate(-126,-78) scale(1,1)"><path fill="none" stroke="#000000" d="M 136 102 L 872 102 L 872 408 L 136 408 L 136 102 Z Z" stroke-miterlimit="10"/></g><g transform="translate(-126,-78) scale(1,1)"><g><path fill="none" stroke="none"/><text fill="#000000" stroke="none" font-family="Arial" font-size="13px" font-style="normal" font-weight="bold" text-decoration="none" x="484.141357421875" y="120.7099609375">Plugin</text></g></g><g transform="translate(-126,-78) scale(1,1)"><path fill="none" stroke="#000000" d="M 580 303 L 505 220" stroke-miterlimit="10"/></g><g transform="translate(-126,-78) scale(1,1)"><path fill="#FFFFFF" stroke="none" d="M 524.8736108369778 229.43607928645977 L 505 220 L 512.3804493382199 240.72508064075913"/></g><g transform="translate(-126,-78) scale(1,1)"><path fill="none" stroke="#000000" d="M 524.8736108369778 229.43607928645977 L 505 220 L 512.3804493382199 240.72508064075913 L 524.8736108369778 229.43607928645977" stroke-miterlimit="10"/></g><g transform="translate(-126,-78) scale(1,1)"><path fill="none" stroke="#000000" d="M 634 303 L 699 220" stroke-miterlimit="10"/></g><g transform="translate(-126,-78) scale(1,1)"><path fill="#FFFFFF" stroke="none" d="M 693.0964681900731 241.19311945347314 L 699 220 L 679.8397741442028 230.81137110429762"/></g><g transform="translate(-126,-78) scale(1,1)"><path fill="none" stroke="#000000" d="M 693.0964681900731 241.19311945347314 L 699 220 L 679.8397741442028 230.81137110429762 L 693.0964681900731 241.19311945347314" stroke-miterlimit="10"/></g><g transform="translate(-126,-78) scale(1,1)"><rect fill="#C0C0C0" stroke="none" x="407" y="151" width="140.8662109375" height="75" opacity="0.2"/></g><g transform="translate(-126,-78) scale(1,1)"><rect fill="#ffffff" stroke="none" x="400" y="144" width="140.8662109375" height="75"/></g><g transform="translate(-126,-78) scale(1,1)"><path fill="none" stroke="#000000" d="M 400 144 L 540.8662109375 144 L 540.8662109375 219 L 400 219 L 400 144 Z Z" stroke-miterlimit="10"/></g><g transform="translate(-126,-78) scale(1,1)"><path fill="none" stroke="#000000" d="M 400 182 L 540.8662109375 182" stroke-miterlimit="10"/></g><g transform="translate(-126,-78) scale(1,1)"><g><path fill="none" stroke="none"/><text fill="#000000" stroke="none" font-family="Arial" font-size="13px" font-style="normal" font-weight="normal" text-decoration="none" x="438.272705078125" y="159.7099609375">«interface»</text></g></g><g transform="translate(-126,-78) scale(1,1)"><g><path fill="none" stroke="none"/><text fill="#000000" stroke="none" font-family="Arial" font-size="13px" font-style="normal" font-weight="bold" text-decoration="none" x="450.574462890625" y="174.7099609375">Plugin</text></g></g><g transform="translate(-126,-78) scale(1,1)"><g><path fill="none" stroke="none"/><text fill="#000000" stroke="none" font-family="Arial" font-size="13px" font-style="normal" font-weight="normal" text-decoration="none" x="405" y="197.7099609375">+Open(name: string[*])</text></g></g><g transform="translate(-126,-78) scale(1,1)"><g><path fill="none" stroke="none"/><text fill="#000000" stroke="none" font-family="Arial" font-size="13px" font-style="normal" font-weight="normal" text-decoration="none" x="405" y="212.7099609375">+Close()</text></g></g><g transform="translate(-126,-78) scale(1,1)"><rect fill="#C0C0C0" stroke="none" x="615" y="151" width="243.18408203125" height="75" opacity="0.2"/></g><g transform="translate(-126,-78) scale(1,1)"><rect fill="#ffffff" stroke="none" x="608" y="144" width="243.18408203125" height="75"/></g><g transform="translate(-126,-78) scale(1,1)"><path fill="none" stroke="#000000" d="M 608 144 L 851.18408203125 144 L 851.18408203125 219 L 608 219 L 608 144 Z Z" stroke-miterlimit="10"/></g><g transform="translate(-126,-78) scale(1,1)"><path fill="none" stroke="#000000" d="M 608 182 L 851.18408203125 182" stroke-miterlimit="10"/></g><g transform="translate(-126,-78) scale(1,1)"><g><path fill="none" stroke="none"/><text fill="#000000" stroke="none" font-family="Arial" font-size="13px" font-style="normal" font-weight="normal" text-decoration="none" x="697.431640625" y="159.7099609375">«interface»</text></g></g><g transform="translate(-126,-78) scale(1,1)"><g><path fill="none" stroke="none"/><text fill="#000000" stroke="none" font-family="Arial" font-size="13px" font-style="normal" font-weight="bold" text-decoration="none" x="706.47705078125" y="174.471923828125">Mapper</text></g></g><g transform="translate(-126,-78) scale(1,1)"><g><path fill="none" stroke="none"/><text fill="#000000" stroke="none" font-family="Arial" font-size="13px" font-style="normal" font-weight="normal" text-decoration="none" x="613" y="197.7099609375">+Read(tx: TxInfo, ID: string)</text></g></g><g transform="translate(-126,-78) scale(1,1)"><g><path fill="none" stroke="none"/><text fill="#000000" stroke="none" font-family="Arial" font-size="13px" font-style="normal" font-weight="normal" text-decoration="none" x="613" y="212.7099609375">+Write(tx: TxInfo, ID: string, val: string)</text></g></g><g transform="translate(-126,-78) scale(1,1)"><path fill="#C0C0C0" stroke="none" d="M 597.70361328125 330 C 597.70361328125 319.5065888 606.21020208125 311 616.70361328125 311 C 627.19702448125 311 635.70361328125 319.5065888 635.70361328125 330 C 635.70361328125 340.4934112 627.19702448125 349 616.70361328125 349 C 606.21020208125 349 597.70361328125 340.4934112 597.70361328125 330 Z" opacity="0.2"/></g><g transform="translate(-126,-78) scale(1,1)"><path fill="#ffffff" stroke="none" d="M 590.70361328125 323 C 590.70361328125 312.5065888 599.21020208125 304 609.70361328125 304 C 620.19702448125 304 628.70361328125 312.5065888 628.70361328125 323 C 628.70361328125 333.4934112 620.19702448125 342 609.70361328125 342 C 599.21020208125 342 590.70361328125 333.4934112 590.70361328125 323 Z"/></g><g transform="translate(-126,-78) scale(1,1)"><path fill="none" stroke="#000000" d="M 590.70361328125 323 C 590.70361328125 312.5065888 599.21020208125 304 609.70361328125 304 C 620.19702448125 304 628.70361328125 312.5065888 628.70361328125 323 C 628.70361328125 333.4934112 620.19702448125 342 609.70361328125 342 C 599.21020208125 342 590.70361328125 333.4934112 590.70361328125 323 Z" stroke-miterlimit="10"/></g><g transform="translate(-126,-78) scale(1,1)"><g><path fill="none" stroke="none"/><text fill="#000000" stroke="none" font-family="Arial" font-size="13px" font-style="normal" font-weight="bold" text-decoration="none" x="588.03271484375" y="359.7099609375">Ledger</text></g></g><g transform="translate(-126,-78) scale(1,1)"><rect fill="#C0C0C0" stroke="none" x="207" y="271" width="125.34619140625" height="105" opacity="0.2"/></g><g transform="translate(-126,-78) scale(1,1)"><rect fill="#ffffff" stroke="none" x="200" y="264" width="125.34619140625" height="105"/></g><g transform="translate(-126,-78) scale(1,1)"><path fill="none" stroke="#000000" d="M 200 264 L 325.34619140625 264 L 325.34619140625 369 L 200 369 L 200 264 Z Z" stroke-miterlimit="10"/></g><g transform="translate(-126,-78) scale(1,1)"><path fill="none" stroke="#000000" d="M 200 317 L 325.34619140625 317" stroke-miterlimit="10"/></g><g transform="translate(-126,-78) scale(1,1)"><g><path fill="none" stroke="none"/><text fill="#000000" stroke="none" font-family="Arial" font-size="13px" font-style="normal" font-weight="normal" text-decoration="none" x="219.30908203125" y="279.7099609375">«enumeration»</text></g></g><g transform="translate(-126,-78) scale(1,1)"><g><path fill="none" stroke="none"/><text fill="#000000" stroke="none" font-family="Arial" font-size="13px" font-style="normal" font-weight="bold" text-decoration="none" x="240.399169921875" y="294.471923828125">TxType</text></g></g><g transform="translate(-126,-78) scale(1,1)"><g><path fill="none" stroke="none"/><text fill="#000000" stroke="none" font-family="Arial" font-size="13px" font-style="normal" font-weight="normal" text-decoration="none" x="225.469482421875" y="309.7099609375">(from Plugin)</text></g></g><g transform="translate(-126,-78) scale(1,1)"><g><path fill="none" stroke="none"/><text fill="#000000" stroke="none" font-family="Arial" font-size="13px" font-style="normal" font-weight="normal" text-decoration="none" x="205" y="332.471923828125">TxTypeDID</text></g></g><g transform="translate(-126,-78) scale(1,1)"><g><path fill="none" stroke="none"/><text fill="#000000" stroke="none" font-family="Arial" font-size="13px" font-style="normal" font-weight="normal" text-decoration="none" x="205" y="347.7099609375">TxTypeSchema</text></g></g><g transform="translate(-126,-78) scale(1,1)"><g><path fill="none" stroke="none"/><text fill="#000000" stroke="none" font-family="Arial" font-size="13px" font-style="normal" font-weight="normal" text-decoration="none" x="205" y="362.7099609375">TxTypeCredDef</text></g></g><g transform="translate(-126,-78) scale(1,1)"><rect fill="#C0C0C0" stroke="none" x="225" y="147" width="83.4072265625" height="59" opacity="0.2"/></g><g transform="translate(-126,-78) scale(1,1)"><rect fill="#ffffff" stroke="none" x="218" y="140" width="83.4072265625" height="59"/></g><g transform="translate(-126,-78) scale(1,1)"><path fill="none" stroke="#000000" d="M 218 140 L 301.4072265625 140 L 301.4072265625 199 L 218 199 L 218 140 Z Z" stroke-miterlimit="10"/></g><g transform="translate(-126,-78) scale(1,1)"><path fill="none" stroke="#000000" d="M 218 180 L 301.4072265625 180" stroke-miterlimit="10"/></g><g transform="translate(-126,-78) scale(1,1)"><path fill="none" stroke="#000000" d="M 218 190 L 301.4072265625 190" stroke-miterlimit="10"/></g><g transform="translate(-126,-78) scale(1,1)"><g><path fill="none" stroke="none"/><text fill="#000000" stroke="none" font-family="Arial" font-size="13px" font-style="normal" font-weight="bold" text-decoration="none" x="240.206787109375" y="157.70361328125">TxInfo</text></g></g><g transform="translate(-126,-78) scale(1,1)"><g><path fill="none" stroke="none"/><text fill="#000000" stroke="none" font-family="Arial" font-size="13px" font-style="normal" font-weight="normal" text-decoration="none" x="222.5" y="172.7099609375">(from Plugin)</text></g></g><g transform="translate(-126,-78) scale(1,1)"><path fill="none" stroke="#000000" d="M 261 263 L 260 200" stroke-miterlimit="10"/></g><g transform="translate(-126,-78) scale(1,1)"><path fill="#000000" stroke="none" d="M 264.37027953829914 210.09458551685626 L 260 200 L 255.95230442497555 210.2282041694487 L 260.34916236578795 221.99722904463917"/></g><g transform="translate(-126,-78) scale(1,1)"><path fill="none" stroke="#000000" d="M 264.37027953829914 210.09458551685626 L 260 200 L 255.95230442497555 210.2282041694487 L 260.34916236578795 221.99722904463917 L 264.37027953829914 210.09458551685626" stroke-miterlimit="10"/></g><g transform="translate(-126,-78) scale(1,1)"><g><path fill="none" stroke="none"/><text fill="#000000" stroke="none" font-family="Arial" font-size="13px" font-style="normal" font-weight="normal" text-decoration="none" x="206.5" y="234.471923828125">+Type</text></g></g><g transform="translate(-126,-78) scale(1,1)"><rect fill="#C0C0C0" stroke="none" x="143" y="439" width="294.4" height="15" opacity="0.2"/></g><g transform="translate(-126,-78) scale(1,1)"><rect fill="#C0C0C0" stroke="none" x="143" y="453" width="736" height="98" opacity="0.2"/></g><g transform="translate(-126,-78) scale(1,1)"><rect fill="#ffffff" stroke="none" x="136" y="447" width="736" height="97"/></g><g transform="translate(-126,-78) scale(1,1)"><path fill="none" stroke="#000000" d="M 136 447 L 872 447 L 872 544 L 136 544 L 136 447 Z Z" stroke-miterlimit="10"/></g><g transform="translate(-126,-78) scale(1,1)"><rect fill="#ffffff" stroke="none" x="136" y="432" width="294.4" height="15"/></g><g transform="translate(-126,-78) scale(1,1)"><path fill="none" stroke="#000000" d="M 136 432 L 430.4 432 L 430.4 447 L 136 447 L 136 432 Z Z" stroke-miterlimit="10"/></g><g transform="translate(-126,-78) scale(1,1)"><rect fill="#ffffff" stroke="none" x="136" y="446" width="736" height="98"/></g><g transform="translate(-126,-78) scale(1,1)"><path fill="none" stroke="#000000" d="M 136 446 L 872 446 L 872 544 L 136 544 L 136 446 Z Z" stroke-miterlimit="10"/></g><g transform="translate(-126,-78) scale(1,1)"><g><path fill="none" stroke="none"/><text fill="#000000" stroke="none" font-family="Arial" font-size="13px" font-style="normal" font-weight="bold" text-decoration="none" x="479.80908203125" y="464.7099609375">Addons</text></g></g><g transform="translate(-126,-78) scale(1,1)"><rect fill="#C0C0C0" stroke="none" x="191" y="495" width="144.79541015625" height="24" opacity="0.2"/></g><g transform="translate(-126,-78) scale(1,1)"><rect fill="#ffffff" stroke="none" x="184" y="488" width="144.79541015625" height="24"/></g><g transform="translate(-126,-78) scale(1,1)"><path fill="none" stroke="#000000" d="M 184 488 L 328.79541015625 488 L 328.79541015625 512 L 184 512 L 184 488 Z Z" stroke-miterlimit="10"/></g><g transform="translate(-126,-78) scale(1,1)"><g><path fill="none" stroke="none"/><text fill="#000000" stroke="none" font-family="Arial" font-size="13px" font-style="normal" font-weight="bold" text-decoration="none" x="188.5" y="505.53857421875">FINDY_FILE_LEDGER</text></g></g><g transform="translate(-126,-78) scale(1,1)"><rect fill="#C0C0C0" stroke="none" x="359" y="495" width="146.9599609375" height="24" opacity="0.2"/></g><g transform="translate(-126,-78) scale(1,1)"><rect fill="#ffffff" stroke="none" x="352" y="488" width="146.9599609375" height="24"/></g><g transform="translate(-126,-78) scale(1,1)"><path fill="none" stroke="#000000" d="M 352 488 L 498.9599609375 488 L 498.9599609375 512 L 352 512 L 352 488 Z Z" stroke-miterlimit="10"/></g><g transform="translate(-126,-78) scale(1,1)"><g><path fill="none" stroke="none"/><text fill="#000000" stroke="none" font-family="Arial" font-size="13px" font-style="normal" font-weight="bold" text-decoration="none" x="356.5" y="505.53857421875">FINDY_MEM_LEDGER</text></g></g><g transform="translate(-126,-78) scale(1,1)"><rect fill="#C0C0C0" stroke="none" x="543" y="495" width="100.0126953125" height="24" opacity="0.2"/></g><g transform="translate(-126,-78) scale(1,1)"><rect fill="#c6c6c6" stroke="none" x="536" y="488" width="100.0126953125" height="24"/></g><g transform="translate(-126,-78) scale(1,1)"><path fill="none" stroke="#000000" d="M 536 488 L 636.0126953125 488 L 636.0126953125 512 L 536 512 L 536 488 Z Z" stroke-miterlimit="10"/></g><g transform="translate(-126,-78) scale(1,1)"><g><path fill="none" stroke="none"/><text fill="#000000" stroke="none" font-family="Arial" font-size="13px" font-style="normal" font-weight="bold" text-decoration="none" x="540.5" y="505.53857421875">FINDY_LEGER</text></g></g><g transform="translate(-126,-78) scale(1,1)"><rect fill="#C0C0C0" stroke="none" x="679" y="495" width="170.0654296875" height="24" opacity="0.2"/></g><g transform="translate(-126,-78) scale(1,1)"><rect fill="#ffffff" stroke="none" x="672" y="488" width="170.0654296875" height="24"/></g><g transform="translate(-126,-78) scale(1,1)"><path fill="none" stroke="#000000" d="M 672 488 L 842.0654296875 488 L 842.0654296875 512 L 672 512 L 672 488 Z Z" stroke-miterlimit="10"/></g><g transform="translate(-126,-78) scale(1,1)"><g><path fill="none" stroke="none"/><text fill="#000000" stroke="none" font-family="Arial" font-size="13px" font-style="normal" font-weight="bold" text-decoration="none" x="676.5" y="505.53857421875">FINDY_IMMUDB_LEDGER</text></g></g><g transform="translate(-126,-78) scale(1,1)"><path fill="none" stroke="#000000" d="M 745 487 L 621.6666666666666 342" stroke-miterlimit="10"/></g><g transform="translate(-126,-78) scale(1,1)"><path fill="none" stroke="#000000" d="M 588 487 L 606.8888888888889 342" stroke-miterlimit="10"/></g><g transform="translate(-126,-78) scale(1,1)"><path fill="none" stroke="#000000" d="M 439 487 L 593.3777777777777 342" stroke-miterlimit="10"/></g><g transform="translate(-126,-78) scale(1,1)"><path fill="none" stroke="#000000" d="M 284 487 L 590.70361328125 336.9401041666667" stroke-miterlimit="10"/></g></g></svg>