<?xml version="1.0" encoding="us-ascii" standalone="no"?><svg xmlns="http://www.w3.org/2000/svg" xmlns:xlink="http://www.w3.org/1999/xlink" contentStyleType="text/css" height="151px" preserveAspectRatio="none" style="width:705px;height:151px;background:#FFFFFF;" version="1.1" viewBox="0 0 705 151" width="705px" zoomAndPan="magnify"><defs/><g><ellipse cx="227.5" cy="16" fill="#222222" rx="10" ry="10" style="stroke:none;stroke-width:1.0;"/><g id="INITIAL"><rect fill="#F1F1F1" height="50" rx="12.5" ry="12.5" style="stroke:#181818;stroke-width:0.5;" width="441" x="7" y="90.5"/><line style="stroke:#181818;stroke-width:0.5;" x1="7" x2="448" y1="116.7969" y2="116.7969"/><text fill="#000000" font-family="sans-serif" font-size="14" lengthAdjust="spacing" textLength="49" x="205" y="108.4951">INITIAL</text></g><!--link *start* to INITIAL--><g id="link_*start*_INITIAL"><path d="M227.5,26.349 C227.5,39.737 227.5,64.9681 227.5,85.0173 " fill="none" id="*start*-to-INITIAL" style="stroke:#181818;stroke-width:1.0;"/><polygon fill="#181818" points="227.5,90.256,231.5,81.256,227.5,85.256,223.5,81.256,227.5,90.256" style="stroke:#181818;stroke-width:1.0;"/></g><!--link INITIAL to INITIAL--><g id="link_INITIAL_INITIAL"><path d="M448.263,106.7065 C469.526,108.4907 483,111.4219 483,115.5 C483,119.2277 471.743,121.997 453.569,123.8081 " fill="none" id="INITIAL-to-INITIAL" style="stroke:#181818;stroke-width:1.0;"/><polygon fill="#181818" points="448.263,124.2935,457.5901,127.4566,453.2422,123.8378,456.861,119.4899,448.263,124.2935" style="stroke:#181818;stroke-width:1.0;"/><text fill="#000000" font-family="sans-serif" font-size="13" font-weight="bold" lengthAdjust="spacing" textLength="149" x="516" y="105.0669">basic_message{ ""}</text><text fill="#000000" font-family="sans-serif" font-size="13" lengthAdjust="spacing" textLength="126" x="489" y="120.1997">{basic_message{ "</text><text fill="#000000" font-family="sans-serif" font-size="13" lengthAdjust="spacing" text-decoration="line-through" textLength="5" x="615" y="120.1997">-</text><text fill="#000000" font-family="sans-serif" font-size="13" lengthAdjust="spacing" text-decoration="line-through" textLength="5" x="620" y="120.1997">-</text><text fill="#000000" font-family="sans-serif" font-size="13" lengthAdjust="spacing" textLength="67" x="625" y="120.1997">--"}} ==&gt;</text><text fill="#000000" font-family="sans-serif" font-size="13" lengthAdjust="spacing" textLength="4" x="588.5" y="135.3325">&#160;</text></g><!--SRC=[YzQALT3LjLFmzFCCyNJquIekIIn9LL1I80r0TPEcIKaXiHXkBym49BTOAMXf9IKMPoR7vwOM5oUcfrOhA2dLQcd5v5MZ2-iY0QNQMWLRMxkOF000]--></g></svg>