<?xml version="1.0" encoding="us-ascii" standalone="no"?><svg xmlns="http://www.w3.org/2000/svg" xmlns:xlink="http://www.w3.org/1999/xlink" contentStyleType="text/css" height="700px" preserveAspectRatio="none" style="width:1145px;height:700px;background:#FFFFFF;" version="1.1" viewBox="0 0 1145 700" width="1145px" zoomAndPan="magnify"><defs/><g><text fill="#000000" font-family="sans-serif" font-size="14" font-weight="bold" lengthAdjust="spacing" textLength="171" x="480" y="22.9951">email issuer machine</text><ellipse cx="710" cy="65.8289" fill="#222222" rx="10" ry="10" style="stroke:none;stroke-width:1.0;"/><g id="IDLE"><rect fill="#F1F1F1" height="50" rx="12.5" ry="12.5" style="stroke:#181818;stroke-width:0.5;" width="436" x="492" y="136.8289"/><line style="stroke:#181818;stroke-width:0.5;" x1="492" x2="928" y1="163.1258" y2="163.1258"/><text fill="#000000" font-family="sans-serif" font-size="14" lengthAdjust="spacing" textLength="32" x="694" y="154.824">IDLE</text></g><g id="WAITING_EMAIL_ADDRESS"><rect fill="#F1F1F1" height="50" rx="12.5" ry="12.5" style="stroke:#181818;stroke-width:0.5;" width="524" x="281" y="293.8289"/><line style="stroke:#181818;stroke-width:0.5;" x1="281" x2="805" y1="320.1258" y2="320.1258"/><text fill="#000000" font-family="sans-serif" font-size="14" lengthAdjust="spacing" textLength="188" x="451" y="311.824">WAITING_EMAIL_ADDRESS</text></g><g id="WAITING_EMAIL_PIN"><rect fill="#F1F1F1" height="50" rx="12.5" ry="12.5" style="stroke:#181818;stroke-width:0.5;" width="494" x="7" y="469.3289"/><line style="stroke:#181818;stroke-width:0.5;" x1="7" x2="501" y1="495.6258" y2="495.6258"/><text fill="#000000" font-family="sans-serif" font-size="14" lengthAdjust="spacing" textLength="142" x="185" y="487.324">WAITING_EMAIL_PIN</text></g><g id="WAITING_ISSUING_STATUS"><rect fill="#F1F1F1" height="50" rx="12.5" ry="12.5" style="stroke:#181818;stroke-width:0.5;" width="519" x="370.5" y="644.8289"/><line style="stroke:#181818;stroke-width:0.5;" x1="370.5" x2="889.5" y1="671.1258" y2="671.1258"/><text fill="#000000" font-family="sans-serif" font-size="14" lengthAdjust="spacing" textLength="187" x="536.5" y="662.824">WAITING_ISSUING_STATUS</text></g><!--link *start* to IDLE--><g id="link_*start*_IDLE"><path d="M710,75.8419 C710,88.5269 710,112.2379 710,131.3989 " fill="none" id="*start*-to-IDLE" style="stroke:#181818;stroke-width:1.0;"/><polygon fill="#181818" points="710,136.6689,714,127.6689,710,131.6689,706,127.6689,710,136.6689" style="stroke:#181818;stroke-width:1.0;"/></g><!--link IDLE to WAITING_EMAIL_ADDRESS--><g id="link_IDLE_WAITING_EMAIL_ADDRESS"><path d="M623.598,186.8859 C607.568,194.4319 592.09,204.2129 580,216.8289 C561.22,236.4259 551.838,266.3279 547.236,288.5159 " fill="none" id="IDLE-to-WAITING_EMAIL_ADDRESS" style="stroke:#181818;stroke-width:1.0;"/><polygon fill="#181818" points="546.219,293.6939,551.8775,285.6328,547.182,288.7875,544.0273,284.092,546.219,293.6939" style="stroke:#181818;stroke-width:1.0;"/><text fill="#000000" font-family="sans-serif" font-size="13" font-weight="bold" lengthAdjust="spacing" textLength="149" x="631.5" y="229.8958">basic_message{ ""}</text><text fill="#000000" font-family="sans-serif" font-size="13" lengthAdjust="spacing" textLength="250" x="581" y="245.0286">{basic_message{ " Hello! I'm "}} ==&gt;</text><text fill="#000000" font-family="sans-serif" font-size="13" lengthAdjust="spacing" textLength="4" x="704" y="260.1614">&#160;</text></g><!--link WAITING_EMAIL_ADDRESS to WAITING_EMAIL_PIN--><g id="link_WAITING_EMAIL_ADDRESS_WAITING_EMAIL_PIN"><path d="M283.616,343.8699 C254.728,351.3159 231.802,361.0649 221,373.8289 C199.314,399.4549 216.304,438.2159 232.891,464.5919 " fill="none" id="WAITING_EMAIL_ADDRESS-to-WAITING_EMAIL_PIN" style="stroke:#181818;stroke-width:1.0;"/><polygon fill="#181818" points="235.759,469.0409,234.2459,459.3089,233.0504,464.838,227.5213,463.6426,235.759,469.0409" style="stroke:#181818;stroke-width:1.0;"/><text fill="#000000" font-family="sans-serif" font-size="13" font-weight="bold" lengthAdjust="spacing" textLength="209" x="258.5" y="386.8958">basic_message{:= "EMAIL"}</text><text fill="#000000" font-family="sans-serif" font-size="13" lengthAdjust="spacing" textLength="282" x="222" y="402.0286">{basic_message{%s "Thank you! I"}} ==&gt;</text><text fill="#000000" font-family="sans-serif" font-size="13" lengthAdjust="spacing" textLength="253" x="236.5" y="417.1614">{email{new PIN "{"from":"cha"}} ==&gt;</text><text fill="#000000" font-family="sans-serif" font-size="13" lengthAdjust="spacing" textLength="4" x="361" y="432.2942">&#160;</text></g><!--link WAITING_EMAIL_PIN to WAITING_EMAIL_ADDRESS--><g id="link_WAITING_EMAIL_PIN_WAITING_EMAIL_ADDRESS"><path d="M420.175,469.2699 C459.561,460.6219 494.399,449.5329 509,435.8289 C532.814,413.4779 540.239,375.4329 542.401,349.0359 " fill="none" id="WAITING_EMAIL_PIN-to-WAITING_EMAIL_ADDRESS" style="stroke:#181818;stroke-width:1.0;"/><polygon fill="#181818" points="542.766,343.9199,538.1335,352.6113,542.409,348.9071,546.1131,353.1825,542.766,343.9199" style="stroke:#181818;stroke-width:1.0;"/><text fill="#000000" font-family="sans-serif" font-size="13" font-weight="bold" lengthAdjust="spacing" textLength="210" x="565.5" y="394.3958">basic_message{== "reset"}</text><text fill="#000000" font-family="sans-serif" font-size="13" lengthAdjust="spacing" textLength="263" x="539" y="409.5286">{basic_message{ "Please enter"}} ==&gt;</text><text fill="#000000" font-family="sans-serif" font-size="13" lengthAdjust="spacing" textLength="4" x="668.5" y="424.6614">&#160;</text></g><!--link WAITING_EMAIL_PIN to WAITING_EMAIL_PIN--><g id="link_WAITING_EMAIL_PIN_WAITING_EMAIL_PIN"><path d="M501.021,481.3939 C522.54,484.1309 536,488.4419 536,494.3289 C536,499.7099 524.754,503.7749 506.387,506.5229 " fill="none" id="WAITING_EMAIL_PIN-to-WAITING_EMAIL_PIN" style="stroke:#181818;stroke-width:1.0;"/><polygon fill="#181818" points="501.021,507.2639,510.4838,509.9945,505.974,506.5796,509.3889,502.0698,501.021,507.2639" style="stroke:#181818;stroke-width:1.0;"/><text fill="#000000" font-family="sans-serif" font-size="13" font-weight="bold" lengthAdjust="spacing" textLength="191" x="583.5" y="483.8958">basic_message{!= "PIN"}</text><text fill="#000000" font-family="sans-serif" font-size="13" lengthAdjust="spacing" textLength="274" x="542" y="499.0286">{basic_message{%s "Incorrect PI"}} ==&gt;</text><text fill="#000000" font-family="sans-serif" font-size="13" lengthAdjust="spacing" textLength="4" x="677" y="514.1614">&#160;</text></g><!--link WAITING_EMAIL_PIN to WAITING_ISSUING_STATUS--><g id="link_WAITING_EMAIL_PIN_WAITING_ISSUING_STATUS"><path d="M306.281,519.4529 C376.475,551.8429 500.719,609.1738 573.165,642.6031 " fill="none" id="WAITING_EMAIL_PIN-to-WAITING_ISSUING_STATUS" style="stroke:#181818;stroke-width:1.0;"/><polygon fill="#181818" points="577.861,644.77,571.3641,637.3679,573.3208,642.6756,568.0131,644.6323,577.861,644.77" style="stroke:#181818;stroke-width:1.0;"/><text fill="#000000" font-family="sans-serif" font-size="13" font-weight="bold" lengthAdjust="spacing" textLength="195" x="552.5" y="565.8958">basic_message{== "PIN"}</text><text fill="#000000" font-family="sans-serif" font-size="13" lengthAdjust="spacing" textLength="282" x="509" y="581.0286">{basic_message{%s "Thank you! I"}} ==&gt;</text><text fill="#000000" font-family="sans-serif" font-size="13" lengthAdjust="spacing" textLength="264" x="518" y="596.1614">{issue_cred{%s "[{"name":"em"}} ==&gt;</text><text fill="#000000" font-family="sans-serif" font-size="13" lengthAdjust="spacing" textLength="4" x="648" y="611.2942">&#160;</text></g><!--link WAITING_ISSUING_STATUS to IDLE--><g id="link_WAITING_ISSUING_STATUS_IDLE"><path d="M756.989,644.7934 C773.049,637.3358 788.021,627.5818 800,614.8289 C828.856,584.1079 816.803,564.5179 823,522.8289 C894.28,43.2969 852.25,241.4729 836,216.8289 C828.532,205.5039 818.143,196.5449 806.505,189.4599 " fill="none" id="WAITING_ISSUING_STATUS-to-IDLE" style="stroke:#181818;stroke-width:1.0;"/><polygon fill="#181818" points="802.163,186.9329,807.9286,194.9177,806.4841,189.4484,811.9534,188.0039,802.163,186.9329" style="stroke:#181818;stroke-width:1.0;"/><text fill="#000000" font-family="sans-serif" font-size="13" font-weight="bold" lengthAdjust="spacing" textLength="176" x="903" y="394.3958">issue_cred{STATUS ""}</text><text fill="#000000" font-family="sans-serif" font-size="13" lengthAdjust="spacing" textLength="292" x="845" y="409.5286">{basic_message{%s "Thank you {{"}} ==&gt;</text><text fill="#000000" font-family="sans-serif" font-size="13" lengthAdjust="spacing" textLength="4" x="989" y="424.6614">&#160;</text></g><!--SRC=[dPHlIyCm4CRVzrFS3aGex0iCEYXiQ62EOJjyiKd9wkcAJGf9XaZOTpUjElyqrRLzK-ZrdhlVFPUOmfG497XHGg7rWHG8dkyBIS4cl8VnU0fijfW7sd13WD3pgNFxvY1m_LwqoQvRk8jPofPNsVmcPeiidirkvqaoWJ3SSLtacI2j-HDPG3o6uLRQtv_Xcigo6W6x58378qJHT2k3lb3UBlf0UGK2lsmRUyMMRUH91DY4lUGN6Z3TS_aChzN1uP_ORUEubVG2JXRGugEg14umt_FX0u9sn_rSRwK7RS4U-n2vuIZIP3hMObKIrsxxfI7rHNrEIQyN8rVE1JgTO3AlbABSk9cVMuuboRf-9scShZiG_whfTxyvwLckwA7vQMDHSa7EVXA3tVTtFCJzdmf1X_3drLJFv1lFHnJ_dmXOUu9z0m00]--></g></svg>