<svg version="1.1" xmlns="http://www.w3.org/2000/svg" xmlns:xlink="http://www.w3.org/1999/xlink" width="501" height="378"><defs/><g><g transform="translate(-22,-13) scale(1,1)"><rect fill="#C0C0C0" stroke="none" x="39" y="79" width="167.59619140625" height="72" opacity="0.2"/></g><g transform="translate(-22,-13) scale(1,1)"><rect fill="#ffffff" stroke="none" x="32" y="72" width="167.59619140625" height="72"/></g><g transform="translate(-22,-13) scale(1,1)"><path fill="none" stroke="#000000" d="M 32 72 L 199.59619140625 72 L 199.59619140625 144 L 32 144 L 32 72 Z Z" stroke-miterlimit="10"/></g><g transform="translate(-22,-13) scale(1,1)"><path fill="none" stroke="#000000" d="M 32 97 L 199.59619140625 97" stroke-miterlimit="10"/></g><g transform="translate(-22,-13) scale(1,1)"><path fill="none" stroke="#000000" d="M 32 135 L 199.59619140625 135" stroke-miterlimit="10"/></g><g transform="translate(-22,-13) scale(1,1)"><g><path fill="none" stroke="none"/><text fill="#000000" stroke="none" font-family="Arial" font-size="13px" font-style="normal" font-weight="bold" text-decoration="none" x="89.791748046875" y="89.7099609375">Machine</text></g></g><g transform="translate(-22,-13) scale(1,1)"><g><path fill="none" stroke="none"/><text fill="#000000" stroke="none" font-family="Arial" font-size="13px" font-style="normal" font-weight="normal" text-decoration="none" x="37" y="112.53857421875">+Current: state_name</text></g></g><g transform="translate(-22,-13) scale(1,1)"><g><path fill="none" stroke="none"/><text fill="#000000" stroke="none" font-family="Arial" font-size="13px" font-style="normal" font-weight="normal" text-decoration="none" x="37" y="127.7099609375">-Memory: map&lt;string,any&gt;</text></g></g><g transform="translate(-22,-13) scale(1,1)"><rect fill="#C0C0C0" stroke="none" x="351" y="87" width="106.91259765625" height="57" opacity="0.2"/></g><g transform="translate(-22,-13) scale(1,1)"><rect fill="#ffffff" stroke="none" x="344" y="80" width="106.91259765625" height="57"/></g><g transform="translate(-22,-13) scale(1,1)"><path fill="none" stroke="#000000" d="M 344 80 L 450.91259765625 80 L 450.91259765625 137 L 344 137 L 344 80 Z Z" stroke-miterlimit="10"/></g><g transform="translate(-22,-13) scale(1,1)"><path fill="none" stroke="#000000" d="M 344 105 L 450.91259765625 105" stroke-miterlimit="10"/></g><g transform="translate(-22,-13) scale(1,1)"><path fill="none" stroke="#000000" d="M 344 128 L 450.91259765625 128" stroke-miterlimit="10"/></g><g transform="translate(-22,-13) scale(1,1)"><g><path fill="none" stroke="none"/><text fill="#000000" stroke="none" font-family="Arial" font-size="13px" font-style="normal" font-weight="bold" text-decoration="none" x="381.561767578125" y="97.53857421875">State</text></g></g><g transform="translate(-22,-13) scale(1,1)"><g><path fill="none" stroke="none"/><text fill="#000000" stroke="none" font-family="Arial" font-size="13px" font-style="normal" font-weight="normal" text-decoration="none" x="349" y="120.7099609375">+Terminate: Bool</text></g></g><g transform="translate(-22,-13) scale(1,1)"><rect fill="#C0C0C0" stroke="none" x="362" y="231" width="83.0771484375" height="57" opacity="0.2"/></g><g transform="translate(-22,-13) scale(1,1)"><rect fill="#ffffff" stroke="none" x="355" y="224" width="83.0771484375" height="57"/></g><g transform="translate(-22,-13) scale(1,1)"><path fill="none" stroke="#000000" d="M 355 224 L 438.0771484375 224 L 438.0771484375 281 L 355 281 L 355 224 Z Z" stroke-miterlimit="10"/></g><g transform="translate(-22,-13) scale(1,1)"><path fill="none" stroke="#000000" d="M 355 249 L 438.0771484375 249" stroke-miterlimit="10"/></g><g transform="translate(-22,-13) scale(1,1)"><path fill="none" stroke="#000000" d="M 355 272 L 438.0771484375 272" stroke-miterlimit="10"/></g><g transform="translate(-22,-13) scale(1,1)"><g><path fill="none" stroke="none"/><text fill="#000000" stroke="none" font-family="Arial" font-size="13px" font-style="normal" font-weight="bold" text-decoration="none" x="365.4794921875" y="241.7099609375">Transition</text></g></g><g transform="translate(-22,-13) scale(1,1)"><g><path fill="none" stroke="none"/><text fill="#000000" stroke="none" font-family="Arial" font-size="13px" font-style="normal" font-weight="normal" text-decoration="none" x="360" y="264.53857421875">+TargetState</text></g></g><g transform="translate(-22,-13) scale(1,1)"><rect fill="#C0C0C0" stroke="none" x="55" y="271" width="127.87890625" height="117" opacity="0.2"/></g><g transform="translate(-22,-13) scale(1,1)"><rect fill="#ffffff" stroke="none" x="48" y="264" width="127.87890625" height="117"/></g><g transform="translate(-22,-13) scale(1,1)"><path fill="none" stroke="#000000" d="M 48 264 L 175.87890625 264 L 175.87890625 381 L 48 381 L 48 264 Z Z" stroke-miterlimit="10"/></g><g transform="translate(-22,-13) scale(1,1)"><path fill="none" stroke="#000000" d="M 48 289 L 175.87890625 289" stroke-miterlimit="10"/></g><g transform="translate(-22,-13) scale(1,1)"><path fill="none" stroke="#000000" d="M 48 342 L 175.87890625 342" stroke-miterlimit="10"/></g><g transform="translate(-22,-13) scale(1,1)"><g><path fill="none" stroke="none"/><text fill="#000000" stroke="none" font-family="Arial" font-size="13px" font-style="normal" font-weight="bold" text-decoration="none" x="94.239013671875" y="281.471923828125">Event</text></g></g><g transform="translate(-22,-13) scale(1,1)"><g><path fill="none" stroke="none"/><text fill="#000000" stroke="none" font-family="Arial" font-size="13px" font-style="normal" font-weight="normal" text-decoration="none" x="53" y="304.7099609375">+Protocol</text></g></g><g transform="translate(-22,-13) scale(1,1)"><g><path fill="none" stroke="none"/><text fill="#000000" stroke="none" font-family="Arial" font-size="13px" font-style="normal" font-weight="normal" text-decoration="none" x="53" y="319.7099609375">+Rule</text></g></g><g transform="translate(-22,-13) scale(1,1)"><g><path fill="none" stroke="none"/><text fill="#000000" stroke="none" font-family="Arial" font-size="13px" font-style="normal" font-weight="normal" text-decoration="none" x="53" y="334.471923828125">+Data</text></g></g><g transform="translate(-22,-13) scale(1,1)"><path fill="none" stroke="#000000" d="M 396 282 L 396 322 L 177 322" stroke-miterlimit="10"/></g><g transform="translate(-22,-13) scale(1,1)"><path fill="#000000" stroke="none" d="M 400.209517756016 292.16267485762415 L 396 282 L 391.790482243984 292.16267485762415 L 396 304"/></g><g transform="translate(-22,-13) scale(1,1)"><path fill="none" stroke="#000000" d="M 400.209517756016 292.16267485762415 L 396 282 L 391.790482243984 292.16267485762415 L 396 304 L 400.209517756016 292.16267485762415" stroke-miterlimit="10"/></g><g transform="translate(-22,-13) scale(1,1)"><g><path fill="none" stroke="none"/><text fill="#000000" stroke="none" font-family="Arial" font-size="13px" font-style="normal" font-weight="normal" text-decoration="none" x="379.5" y="307.471923828125">1</text></g></g><g transform="translate(-22,-13) scale(1,1)"><g><path fill="none" stroke="none"/><text fill="#000000" stroke="none" font-family="Arial" font-size="13px" font-style="normal" font-weight="normal" text-decoration="none" x="196.5" y="358.2021484375">output</text></g></g><g transform="translate(-22,-13) scale(1,1)"><g><path fill="none" stroke="none"/><text fill="#000000" stroke="none" font-family="Arial" font-size="13px" font-style="normal" font-weight="normal" text-decoration="none" x="187.5" y="339.471923828125">1..*</text></g></g><g transform="translate(-22,-13) scale(1,1)"><path fill="none" stroke="#000000" d="M 177 306 L 354 262" stroke-miterlimit="10"/></g><g transform="translate(-22,-13) scale(1,1)"><path fill="#000000" stroke="none" d="M 345.153014746159 268.53688396090365 L 354 262 L 343.12196175736705 260.3665117105362 L 332.6497884168324 267.307397229714"/></g><g transform="translate(-22,-13) scale(1,1)"><path fill="none" stroke="#000000" d="M 345.153014746159 268.53688396090365 L 354 262 L 343.12196175736705 260.3665117105362 L 332.6497884168324 267.307397229714 L 345.153014746159 268.53688396090365" stroke-miterlimit="10"/></g><g transform="translate(-22,-13) scale(1,1)"><g><path fill="none" stroke="none"/><text fill="#000000" stroke="none" font-family="Arial" font-size="13px" font-style="normal" font-weight="normal" text-decoration="none" x="181.5" y="287.7099609375">trigger</text></g></g><g transform="translate(-22,-13) scale(1,1)"><g><path fill="none" stroke="none"/><text fill="#000000" stroke="none" font-family="Arial" font-size="13px" font-style="normal" font-weight="normal" text-decoration="none" x="213.5" y="310.471923828125">1</text></g></g><g transform="translate(-22,-13) scale(1,1)"><g><path fill="none" stroke="none"/><text fill="#000000" stroke="none" font-family="Arial" font-size="13px" font-style="normal" font-weight="normal" text-decoration="none" x="332.5" y="283.471923828125">1</text></g></g><g transform="translate(-22,-13) scale(1,1)"><path fill="none" stroke="#000000" d="M 115 71 L 115 40 L 397 40 L 397 79" stroke-miterlimit="10"/></g><g transform="translate(-22,-13) scale(1,1)"><g><path fill="none" stroke="none"/><text fill="#000000" stroke="none" font-family="Arial" font-size="13px" font-style="normal" font-weight="normal" text-decoration="none" x="123.5" y="53.471923828125">1</text></g></g><g transform="translate(-22,-13) scale(1,1)"><g><path fill="none" stroke="none"/><text fill="#000000" stroke="none" font-family="Arial" font-size="13px" font-style="normal" font-weight="normal" text-decoration="none" x="372.2958984375" y="33.2021484375">current</text></g></g><g transform="translate(-22,-13) scale(1,1)"><g><path fill="none" stroke="none"/><text fill="#000000" stroke="none" font-family="Arial" font-size="13px" font-style="normal" font-weight="normal" text-decoration="none" x="380.726806640625" y="61.471923828125">1</text></g></g><g transform="translate(-22,-13) scale(1,1)"><path fill="none" stroke="#000000" d="M 354 230 L 187 145" stroke-miterlimit="10"/></g><g transform="translate(-22,-13) scale(1,1)"><path fill="#000000" stroke="none" d="M 197.96646206212822 145.85831802958035 L 187 145 L 194.14753719062492 153.3613821888868 L 206.60645150728226 154.97933160550295"/></g><g transform="translate(-22,-13) scale(1,1)"><path fill="none" stroke="#000000" d="M 197.96646206212822 145.85831802958035 L 187 145 L 194.14753719062492 153.3613821888868 L 206.60645150728226 154.97933160550295 L 197.96646206212822 145.85831802958035" stroke-miterlimit="10"/></g><g transform="translate(-22,-13) scale(1,1)"><g><path fill="none" stroke="none"/><text fill="#000000" stroke="none" font-family="Arial" font-size="13px" font-style="normal" font-weight="normal" text-decoration="none" x="309.5" y="235.7099609375">initial</text></g></g><g transform="translate(-22,-13) scale(1,1)"><g><path fill="none" stroke="none"/><text fill="#000000" stroke="none" font-family="Arial" font-size="13px" font-style="normal" font-weight="normal" text-decoration="none" x="336.5" y="213.471923828125">1</text></g></g><g transform="translate(-22,-13) scale(1,1)"><g><path fill="none" stroke="none"/><text fill="#000000" stroke="none" font-family="Arial" font-size="13px" font-style="normal" font-weight="normal" text-decoration="none" x="207.5" y="147.471923828125">1</text></g></g><g transform="translate(-22,-13) scale(1,1)"><path fill="none" stroke="#000000" d="M 396 223 L 397 138" stroke-miterlimit="10"/></g><g transform="translate(-22,-13) scale(1,1)"><path fill="#000000" stroke="none" d="M 401.0896738627179 148.21149194273795 L 397 138 L 392.67122092242744 148.112451319911 L 396.741194380392 159.99847766667637"/></g><g transform="translate(-22,-13) scale(1,1)"><path fill="none" stroke="#000000" d="M 401.0896738627179 148.21149194273795 L 397 138 L 392.67122092242744 148.112451319911 L 396.741194380392 159.99847766667637 L 401.0896738627179 148.21149194273795" stroke-miterlimit="10"/></g><g transform="translate(-22,-13) scale(1,1)"><g><path fill="none" stroke="none"/><text fill="#000000" stroke="none" font-family="Arial" font-size="13px" font-style="normal" font-weight="normal" text-decoration="none" x="406.5" y="211.53857421875">0..*</text></g></g><g transform="translate(-22,-13) scale(1,1)"><g><path fill="none" stroke="none"/><text fill="#000000" stroke="none" font-family="Arial" font-size="13px" font-style="normal" font-weight="normal" text-decoration="none" x="405.5" y="163.471923828125">1</text></g></g><g transform="translate(-22,-13) scale(1,1)"><path fill="none" stroke="#000000" d="M 343 108 L 201 108" stroke-miterlimit="10"/></g><g transform="translate(-22,-13) scale(1,1)"><path fill="#000000" stroke="none" d="M 211.16267485762415 103.79048224398402 L 201 108 L 211.16267485762415 112.20951775601598 L 223 108"/></g><g transform="translate(-22,-13) scale(1,1)"><path fill="none" stroke="#000000" d="M 211.16267485762415 103.79048224398402 L 201 108 L 211.16267485762415 112.20951775601598 L 223 108 L 211.16267485762415 103.79048224398402" stroke-miterlimit="10"/></g><g transform="translate(-22,-13) scale(1,1)"><g><path fill="none" stroke="none"/><text fill="#000000" stroke="none" font-family="Arial" font-size="13px" font-style="normal" font-weight="normal" text-decoration="none" x="311.5" y="99.471923828125">1..*</text></g></g><g transform="translate(-22,-13) scale(1,1)"><g><path fill="none" stroke="none"/><text fill="#000000" stroke="none" font-family="Arial" font-size="13px" font-style="normal" font-weight="normal" text-decoration="none" x="218.5" y="99.471923828125">1</text></g></g><g transform="translate(-22,-13) scale(1,1)"><path fill="none" stroke="#000000" d="M 439 252 L 512 252 L 512 108 L 452 108" stroke-miterlimit="10"/></g><g transform="translate(-22,-13) scale(1,1)"><g><path fill="none" stroke="none"/><text fill="#000000" stroke="none" font-family="Arial" font-size="13px" font-style="normal" font-weight="normal" text-decoration="none" x="460.5" y="126.2021484375">target</text></g></g></g></svg>