<?xml version="1.0" encoding="us-ascii" standalone="no"?><svg xmlns="http://www.w3.org/2000/svg" xmlns:xlink="http://www.w3.org/1999/xlink" contentStyleType="text/css" height="1051px" preserveAspectRatio="none" style="width:1368px;height:1051px;background:#FFFFFF;" version="1.1" viewBox="0 0 1368 1051" width="1368px" zoomAndPan="magnify"><defs/><g><text fill="#000000" font-family="sans-serif" font-size="14" font-weight="bold" lengthAdjust="spacing" textLength="232" x="561.25" y="22.9951">main issuing service machine</text><ellipse cx="857.5" cy="53.2969" fill="#222222" rx="10" ry="10" style="stroke:#222222;stroke-width:1.0;"/><g id="WAIT_SESSION_ID"><rect fill="#F1F1F1" height="50" rx="12.5" ry="12.5" style="stroke:#181818;stroke-width:0.5;" width="482" x="616.5" y="127.7969"/><line style="stroke:#181818;stroke-width:0.5;" x1="616.5" x2="1098.5" y1="154.0938" y2="154.0938"/><text fill="#000000" font-family="sans-serif" font-size="14" lengthAdjust="spacing" textLength="122" x="798.5" y="145.792">WAIT_SESSION_ID</text></g><g id="WAIT_FINAL"><rect fill="#F1F1F1" height="50" rx="12.5" ry="12.5" style="stroke:#181818;stroke-width:0.5;" width="458" x="604.5" y="995.2969"/><line style="stroke:#181818;stroke-width:0.5;" x1="604.5" x2="1062.5" y1="1021.5938" y2="1021.5938"/><text fill="#000000" font-family="sans-serif" font-size="14" lengthAdjust="spacing" textLength="78" x="794.5" y="1013.292">WAIT_FINAL</text></g><g id="WAIT_ISSUING_STATUS_AS_RCVR"><rect fill="#F1F1F1" height="50" rx="12.5" ry="12.5" style="stroke:#181818;stroke-width:0.5;" width="541" x="563" y="832.2969"/><line style="stroke:#181818;stroke-width:0.5;" x1="563" x2="1104" y1="858.5938" y2="858.5938"/><text fill="#000000" font-family="sans-serif" font-size="14" lengthAdjust="spacing" textLength="229" x="721" y="850.292">WAIT_ISSUING_STATUS_AS_RCVR</text></g><g id="WAIT_RCVR_TO_JOIN_AS_ISSUER"><rect fill="#F1F1F1" height="50" rx="12.5" ry="12.5" style="stroke:#181818;stroke-width:0.5;" width="535" x="7" y="740.2969"/><line style="stroke:#181818;stroke-width:0.5;" x1="7" x2="542" y1="766.5938" y2="766.5938"/><text fill="#000000" font-family="sans-serif" font-size="14" lengthAdjust="spacing" textLength="223" x="165" y="758.292">WAIT_RCVR_TO_JOIN_AS_ISSUER</text></g><g id="WAIT_ROLE_SELECTION"><rect fill="#F1F1F1" height="50" rx="12.5" ry="12.5" style="stroke:#181818;stroke-width:0.5;" width="506" x="304.5" y="306.7969"/><line style="stroke:#181818;stroke-width:0.5;" x1="304.5" x2="810.5" y1="333.0938" y2="333.0938"/><text fill="#000000" font-family="sans-serif" font-size="14" lengthAdjust="spacing" textLength="162" x="478.5" y="324.792">WAIT_ROLE_SELECTION</text></g><g id="WAIT_CLIENT_DATA_AS_ISSUER"><rect fill="#F1F1F1" height="50" rx="12.5" ry="12.5" style="stroke:#181818;stroke-width:0.5;" width="532" x="17.5" y="482.2969"/><line style="stroke:#181818;stroke-width:0.5;" x1="17.5" x2="549.5" y1="508.5938" y2="508.5938"/><text fill="#000000" font-family="sans-serif" font-size="14" lengthAdjust="spacing" textLength="216" x="175.5" y="500.292">WAIT_CLIENT_DATA_AS_ISSUER</text></g><g id="TR_RECEIVER"><rect fill="#F1F1F1" height="50" rx="12.5" ry="12.5" style="stroke:#181818;stroke-width:0.5;" width="471" x="586" y="482.2969"/><line style="stroke:#181818;stroke-width:0.5;" x1="586" x2="1057" y1="508.5938" y2="508.5938"/><text fill="#000000" font-family="sans-serif" font-size="14" lengthAdjust="spacing" textLength="95" x="776" y="500.292">TR_RECEIVER</text></g><g id="WAIT_DATA_AS_RECEIVER"><rect fill="#F1F1F1" height="50" rx="12.5" ry="12.5" style="stroke:#181818;stroke-width:0.5;" width="516" x="563.5" y="654.2969"/><line style="stroke:#181818;stroke-width:0.5;" x1="563.5" x2="1079.5" y1="680.5938" y2="680.5938"/><text fill="#000000" font-family="sans-serif" font-size="14" lengthAdjust="spacing" textLength="180" x="733.5" y="672.292">WAIT_DATA_AS_RECEIVER</text></g><!--link *start* to WAIT_SESSION_ID--><g id="link_*start*_WAIT_SESSION_ID"><path d="M857.5,63.6469 C857.5,78.2269 857.5,100.8669 857.5,121.5569 " fill="none" id="*start*-to-WAIT_SESSION_ID" style="stroke:#181818;stroke-width:1.0;"/><polygon fill="#181818" points="857.5,127.5569,861.5,118.5569,857.5,122.5569,853.5,118.5569,857.5,127.5569" style="stroke:#181818;stroke-width:1.0;"/></g><!--link WAIT_FINAL to WAIT_SESSION_ID--><g id="link_WAIT_FINAL_WAIT_SESSION_ID"><path d="M1048.16,994.8469 C1082.75,987.3269 1111.74,977.6469 1125.5,965.2969 C1162.44,932.1369 1157.5,907.9369 1157.5,858.2969 C1157.5,330.7969 1157.5,330.7969 1157.5,330.7969 C1157.5,246.7369 1074.821,203.4535 993.971,179.9235 " fill="none" id="WAIT_FINAL-to-WAIT_SESSION_ID" style="stroke:#181818;stroke-width:1.0;"/><polygon fill="#181818" points="988.21,178.2469,995.7337,184.6025,993.0108,179.6441,997.9692,176.9212,988.21,178.2469" style="stroke:#181818;stroke-width:1.0;"/><text fill="#000000" font-family="sans-serif" font-size="13" font-weight="bold" lengthAdjust="spacing" textLength="150" x="1184.5" y="582.8638">basic_message{ ""}</text><text fill="#000000" font-family="sans-serif" font-size="13" lengthAdjust="spacing" textLength="124" x="1158.5" y="597.9966">{basic_message{ "</text><text fill="#000000" font-family="sans-serif" font-size="13" lengthAdjust="spacing" text-decoration="line-through" textLength="5" x="1282.5" y="597.9966">-</text><text fill="#000000" font-family="sans-serif" font-size="13" lengthAdjust="spacing" text-decoration="line-through" textLength="5" x="1287.5" y="597.9966">-</text><text fill="#000000" font-family="sans-serif" font-size="13" lengthAdjust="spacing" textLength="68" x="1292.5" y="597.9966">--"}} ==&gt;</text><text fill="#000000" font-family="sans-serif" font-size="13" lengthAdjust="spacing" textLength="4" x="1257.5" y="613.1294">&#160;</text></g><!--link WAIT_ISSUING_STATUS_AS_RCVR to WAIT_FINAL--><g id="link_WAIT_ISSUING_STATUS_AS_RCVR_WAIT_FINAL"><path d="M833.5,882.7469 C833.5,913.0969 833.5,958.5469 833.5,988.8769 " fill="none" id="WAIT_ISSUING_STATUS_AS_RCVR-to-WAIT_FINAL" style="stroke:#181818;stroke-width:1.0;"/><polygon fill="#181818" points="833.5,994.8769,837.5,985.8769,833.5,989.8769,829.5,985.8769,833.5,994.8769" style="stroke:#181818;stroke-width:1.0;"/><text fill="#000000" font-family="sans-serif" font-size="13" font-weight="bold" lengthAdjust="spacing" textLength="169" x="891" y="931.3638">issue_cred{STATUS ""}</text><text fill="#000000" font-family="sans-serif" font-size="13" lengthAdjust="spacing" textLength="282" x="834.5" y="946.4966">{basic_message{%s "Thank you! Y"}} ==&gt;</text><text fill="#000000" font-family="sans-serif" font-size="13" lengthAdjust="spacing" textLength="4" x="973.5" y="961.6294">&#160;</text></g><!--link WAIT_RCVR_TO_JOIN_AS_ISSUER to WAIT_FINAL--><g id="link_WAIT_RCVR_TO_JOIN_AS_ISSUER_WAIT_FINAL"><path d="M270.54,790.6869 C267.59,817.9769 267.52,861.8269 291.5,888.2969 C337.64,939.2369 493.4304,973.0507 628.3104,993.8907 " fill="none" id="WAIT_RCVR_TO_JOIN_AS_ISSUER-to-WAIT_FINAL" style="stroke:#181818;stroke-width:1.0;"/><polygon fill="#181818" points="634.24,994.8069,625.9563,989.4795,629.2986,994.0434,624.7348,997.3857,634.24,994.8069" style="stroke:#181818;stroke-width:1.0;"/><text fill="#000000" font-family="sans-serif" font-size="13" font-weight="bold" lengthAdjust="spacing" textLength="214" x="311.5" y="839.3638">backend{== "rcvr_arriwed"}</text><text fill="#000000" font-family="sans-serif" font-size="13" lengthAdjust="spacing" textLength="231" x="303" y="854.4966">{backend{%s "{{.ATTR1}}"}} ==&gt;</text><text fill="#000000" font-family="sans-serif" font-size="13" lengthAdjust="spacing" textLength="252" x="292.5" y="869.6294">{basic_message{ "role Issuer "}} ==&gt;</text><text fill="#000000" font-family="sans-serif" font-size="13" lengthAdjust="spacing" textLength="4" x="416.5" y="884.7622">&#160;</text></g><!--link WAIT_ROLE_SELECTION to WAIT_CLIENT_DATA_AS_ISSUER--><g id="link_WAIT_ROLE_SELECTION_WAIT_CLIENT_DATA_AS_ISSUER"><path d="M450.73,357.2269 C426.76,365.4869 402.3,376.2969 381.5,390.2969 C345.42,414.5869 318.4018,450.721 301.4318,476.921 " fill="none" id="WAIT_ROLE_SELECTION-to-WAIT_CLIENT_DATA_AS_ISSUER" style="stroke:#181818;stroke-width:1.0;"/><polygon fill="#181818" points="298.17,481.9569,306.42,476.5775,300.8882,477.7603,299.7054,472.2284,298.17,481.9569" style="stroke:#181818;stroke-width:1.0;"/><text fill="#000000" font-family="sans-serif" font-size="13" font-weight="bold" lengthAdjust="spacing" textLength="216" x="404" y="403.3638">basic_message{== "issuer"}</text><text fill="#000000" font-family="sans-serif" font-size="13" lengthAdjust="spacing" textLength="259" x="382.5" y="418.4966">{basic_message{ "ACK, next gi"}} ==&gt;</text><text fill="#000000" font-family="sans-serif" font-size="13" lengthAdjust="spacing" textLength="223" x="400.5" y="433.6294">{transient{ "internal_mes"}} ==&gt;</text><text fill="#000000" font-family="sans-serif" font-size="13" lengthAdjust="spacing" textLength="4" x="510" y="448.7622">&#160;</text></g><!--link WAIT_ROLE_SELECTION to TR_RECEIVER--><g id="link_WAIT_ROLE_SELECTION_TR_RECEIVER"><path d="M594.76,357.2869 C645.08,390.3569 729.196,445.6315 779.406,478.6315 " fill="none" id="WAIT_ROLE_SELECTION-to-TR_RECEIVER" style="stroke:#181818;stroke-width:1.0;"/><polygon fill="#181818" points="784.42,481.9269,779.0959,473.6411,780.2417,479.1807,774.702,480.3264,784.42,481.9269" style="stroke:#181818;stroke-width:1.0;"/><text fill="#000000" font-family="sans-serif" font-size="13" font-weight="bold" lengthAdjust="spacing" textLength="200" x="771" y="403.3638">basic_message{== "rcvr"}</text><text fill="#000000" font-family="sans-serif" font-size="13" lengthAdjust="spacing" textLength="267" x="737.5" y="418.4966">{basic_message{ "ACK, todo rm"}} ==&gt;</text><text fill="#000000" font-family="sans-serif" font-size="13" lengthAdjust="spacing" textLength="223" x="759.5" y="433.6294">{transient{ "internal_mes"}} ==&gt;</text><text fill="#000000" font-family="sans-serif" font-size="13" lengthAdjust="spacing" textLength="4" x="869" y="448.7622">&#160;</text></g><!--link WAIT_ROLE_SELECTION to WAIT_ROLE_SELECTION--><g id="link_WAIT_ROLE_SELECTION_WAIT_ROLE_SELECTION"><path d="M810.73,318.7669 C832.15,321.5569 845.5,325.8969 845.5,331.7969 C845.5,337.6969 838.0997,341.2619 816.6797,344.0519 " fill="none" id="WAIT_ROLE_SELECTION-to-WAIT_ROLE_SELECTION" style="stroke:#181818;stroke-width:1.0;"/><polygon fill="#181818" points="810.73,344.8269,820.1713,347.6309,815.6881,344.1811,819.138,339.6979,810.73,344.8269" style="stroke:#181818;stroke-width:1.0;"/><text fill="#000000" font-family="sans-serif" font-size="13" font-weight="bold" lengthAdjust="spacing" textLength="150" x="908.5" y="321.3638">basic_message{ ""}</text><text fill="#000000" font-family="sans-serif" font-size="13" lengthAdjust="spacing" textLength="264" x="851.5" y="336.4966">{basic_message{ "NACK issuer "}} ==&gt;</text><text fill="#000000" font-family="sans-serif" font-size="13" lengthAdjust="spacing" textLength="4" x="981.5" y="351.6294">&#160;</text></g><!--link WAIT_SESSION_ID to WAIT_SESSION_ID--><g id="link_WAIT_SESSION_ID_WAIT_SESSION_ID"><path d="M1098.8,144.0869 C1120.13,145.9169 1133.5,148.8169 1133.5,152.7969 C1133.5,156.7769 1126.108,159.164 1104.778,160.994 " fill="none" id="WAIT_SESSION_ID-to-WAIT_SESSION_ID" style="stroke:#181818;stroke-width:1.0;"/><polygon fill="#181818" points="1098.8,161.5069,1108.109,164.7229,1103.7817,161.0795,1107.4251,156.7522,1098.8,161.5069" style="stroke:#181818;stroke-width:1.0;"/><text fill="#000000" font-family="sans-serif" font-size="13" font-weight="bold" lengthAdjust="spacing" textLength="204" x="1139.5" y="142.3638">basic_message{== "help"}</text><text fill="#000000" font-family="sans-serif" font-size="13" lengthAdjust="spacing" textLength="124" x="1140.5" y="157.4966">{basic_message{ "</text><text fill="#000000" font-family="sans-serif" font-size="13" lengthAdjust="spacing" text-decoration="line-through" textLength="5" x="1264.5" y="157.4966">-</text><text fill="#000000" font-family="sans-serif" font-size="13" lengthAdjust="spacing" text-decoration="line-through" textLength="5" x="1269.5" y="157.4966">-</text><text fill="#000000" font-family="sans-serif" font-size="13" lengthAdjust="spacing" textLength="68" x="1274.5" y="157.4966">--"}} ==&gt;</text><text fill="#000000" font-family="sans-serif" font-size="13" lengthAdjust="spacing" textLength="4" x="1239.5" y="172.6294">&#160;</text></g><!--link WAIT_SESSION_ID to WAIT_ROLE_SELECTION--><g id="link_WAIT_SESSION_ID_WAIT_ROLE_SELECTION"><path d="M816.1,178.2269 C758.88,211.9869 661.3775,269.5078 604.1275,303.2878 " fill="none" id="WAIT_SESSION_ID-to-WAIT_ROLE_SELECTION" style="stroke:#181818;stroke-width:1.0;"/><polygon fill="#181818" points="598.96,306.3369,608.744,305.2083,603.2663,303.796,604.6786,298.3183,598.96,306.3369" style="stroke:#181818;stroke-width:1.0;"/><text fill="#000000" font-family="sans-serif" font-size="13" font-weight="bold" lengthAdjust="spacing" textLength="166" x="813" y="224.3638">basic_message{:= ""}</text><text fill="#000000" font-family="sans-serif" font-size="13" lengthAdjust="spacing" textLength="285" x="753.5" y="239.4966">{basic_message{%s "ACK Your ses"}} ==&gt;</text><text fill="#000000" font-family="sans-serif" font-size="13" lengthAdjust="spacing" textLength="256" x="768" y="254.6294">{basic_message{ "select your "}} ==&gt;</text><text fill="#000000" font-family="sans-serif" font-size="13" lengthAdjust="spacing" textLength="4" x="894" y="269.7622">&#160;</text></g><!--link TR_RECEIVER to WAIT_DATA_AS_RECEIVER--><g id="link_TR_RECEIVER_WAIT_DATA_AS_RECEIVER"><path d="M821.5,532.6569 C821.5,564.9669 821.5,615.6869 821.5,647.9869 " fill="none" id="TR_RECEIVER-to-WAIT_DATA_AS_RECEIVER" style="stroke:#181818;stroke-width:1.0;"/><polygon fill="#181818" points="821.5,653.9869,825.5,644.9869,821.5,648.9869,817.5,644.9869,821.5,653.9869" style="stroke:#181818;stroke-width:1.0;"/><text fill="#000000" font-family="sans-serif" font-size="13" font-weight="bold" lengthAdjust="spacing" textLength="103" x="891" y="575.3638">transient{ ""}</text><text fill="#000000" font-family="sans-serif" font-size="13" lengthAdjust="spacing" textLength="240" x="822.5" y="590.4966">{basic_message{ "ACK, rcvr"}} ==&gt;</text><text fill="#000000" font-family="sans-serif" font-size="13" lengthAdjust="spacing" textLength="213" x="836" y="605.6294">{backend{ "receiver_arr"}} ==&gt;</text><text fill="#000000" font-family="sans-serif" font-size="13" lengthAdjust="spacing" textLength="4" x="940.5" y="620.7622">&#160;</text></g><!--link WAIT_CLIENT_DATA_AS_ISSUER to WAIT_RCVR_TO_JOIN_AS_ISSUER--><g id="link_WAIT_CLIENT_DATA_AS_ISSUER_WAIT_RCVR_TO_JOIN_AS_ISSUER"><path d="M282.65,532.3769 C280.94,581.1769 277.281,685.2006 275.561,734.0906 " fill="none" id="WAIT_CLIENT_DATA_AS_ISSUER-to-WAIT_RCVR_TO_JOIN_AS_ISSUER" style="stroke:#181818;stroke-width:1.0;"/><polygon fill="#181818" points="275.35,740.0869,279.664,731.2331,275.5258,735.09,271.6689,730.9518,275.35,740.0869" style="stroke:#181818;stroke-width:1.0;"/><text fill="#000000" font-family="sans-serif" font-size="13" font-weight="bold" lengthAdjust="spacing" textLength="211" x="321.5" y="582.8638">basic_message{:= "ATTR1"}</text><text fill="#000000" font-family="sans-serif" font-size="13" lengthAdjust="spacing" textLength="287" x="283.5" y="597.9966">{basic_message{%s "ACK Your &lt;at"}} ==&gt;</text><text fill="#000000" font-family="sans-serif" font-size="13" lengthAdjust="spacing" textLength="4" x="425" y="613.1294">&#160;</text></g><!--link WAIT_DATA_AS_RECEIVER to WAIT_ISSUING_STATUS_AS_RCVR--><g id="link_WAIT_DATA_AS_RECEIVER_WAIT_ISSUING_STATUS_AS_RCVR"><path d="M823.17,704.7669 C825.46,738.3969 829.151,792.5308 831.441,826.0508 " fill="none" id="WAIT_DATA_AS_RECEIVER-to-WAIT_ISSUING_STATUS_AS_RCVR" style="stroke:#181818;stroke-width:1.0;"/><polygon fill="#181818" points="831.85,832.0369,835.2273,822.7852,831.5092,827.0485,827.2459,823.3304,831.85,832.0369" style="stroke:#181818;stroke-width:1.0;"/><text fill="#000000" font-family="sans-serif" font-size="13" font-weight="bold" lengthAdjust="spacing" textLength="162" x="888.5" y="747.3638">backend{:= "ATTR1"}</text><text fill="#000000" font-family="sans-serif" font-size="13" lengthAdjust="spacing" textLength="280" x="829.5" y="762.4966">{basic_message{%s "Issue &lt;attr1"}} ==&gt;</text><text fill="#000000" font-family="sans-serif" font-size="13" lengthAdjust="spacing" textLength="260" x="839.5" y="777.6294">{issue_cred{%s "[{"name":"em"}} ==&gt;</text><text fill="#000000" font-family="sans-serif" font-size="13" lengthAdjust="spacing" textLength="4" x="967.5" y="792.7622">&#160;</text></g><!--SRC=[hLRHYjim47ptLsmDVGbDuLv3Ss1oRd4R7B1rLuwx8dJEaeXBb28fQOl9lzTogAqcibCbzQEi7U-CPaVMNAyGremBu4fjkLY0GhdZXLaibbnWy3Ju1iFXBNoD4aBpEC-JMKgJkq1ffX52y7bgZ8z96aszoa9WogeDB1X7PoCO35wOuWLTer9iWIM4uNumU1RbyVBGUiBz7iRZssSHU56hFvxa-NsIVg8vYSXzJgESPfE7p8-Q6oFems_8rreOtkOGaHOIv-LXRmVrjmf2icJY5Nvjjc_WyHhofXLAPlJpB4bDQwRPs9Ey6oFempyb_yAALnJpSZo6K1OxIPcK_0VE6mKEhmttidmV4PBTxFSDynDpo4qr6eaHLCA5-hGQpQPnPT5fF26LIVrz_tTzuC9iz9XCapWbz2uYKIlNwL0ObMgxo8xXY2PVte70dneMl5L9IoOKHw6h7Lneb8AjJ56hK5Tp9ADPF8cJXwvkp9drzQ8tymt8zV_enR7k4HjfrGxmgvq1nybrII9QYNoCza_PQ8HVukgxLq9sVkcSfADnJo0PLHytMrbTGQfxB1MkiD0cjwuK7sn7Ubz7LcrWupHI_9a_s_EsOVkSVfY4Le53S5KJWWNo7TR9TaraEoF2qtXEZA07lZM9Cz3TPgbJ-hnZFZ1zkHUSn-KzYCS0WHksKS5zfzlts7d-zUrao6jvq_h5-WamcvxAKB0rXgCGs-py3G00]--></g></svg>